<svg version="1.1" xmlns="http://www.w3.org/2000/svg" xmlns:xlink="http://www.w3.org/1999/xlink" preserveAspectRatio="xMidYMid meet" viewBox="402 319 357 124">
<g transform="translate(400 325) scale(1 1) rotate(0 0 0)">
	<path fill-rule="evenodd" clip-rule="evenodd" fill="#FFFFFF" d="M56.483,70.303c11.61,0.043,17.185-5.142,17.054-14.213   c-0.139-9.465-5.08-16.528-11.843-22.585c-1.289-1.154-2.251-0.594-3.273,0.448c-2.556,2.605-5.187,5.146-7.769,7.732   c-4.628,4.64-9.277,9.26-13.811,13.988c-0.479,0.502-0.662,2.016-0.278,2.502C42.186,65.281,49.296,69.793,56.483,70.303z    M12.645,33.783c2.538,2.073,2.245,2.046,1.977,5.042c-0.397,4.427-0.956,8.982-0.361,13.332   c2.563,18.702,18.898,31.946,38.072,31.29c18.102-0.625,33.604-15.745,34.924-34.065C89.252,21.778,60.98,1.833,35.701,13.016   c-6.691,2.961-8.832,9.295-5.14,15.564c0.437,0.745,1.565,1.081,2.374,1.606c0.046-1.023,0.477-2.235,0.079-3.034   c-2.708-5.497-1.479-9.044,4.165-11.434c13.157-5.578,27.344-2.671,37.624,7.705C88.861,37.62,86.83,62.054,70.619,73.685   c-19.662,14.116-46.271,4.771-52.69-18.56c-1.629-5.921-1.382-11.874,0.29-17.895c1.185,0.181,2.063,0.316,3.404,0.525   c0.342-4.647,0.678-9.148,1.01-13.657c-0.267-0.081-0.533-0.166-0.799-0.247C18.815,27.113,15.794,30.375,12.645,33.783z    M57.742,30.606c-4.428-2.687-9.131-4.632-14.402-4.23c-2.476,0.189-4.923,1.158-7.293,2.022c-0.469,0.174-0.979,1.903-0.701,2.2   c3.646,3.941,7.433,7.755,11.252,11.669C50.454,38.229,53.957,34.566,57.742,30.606z M34.419,54.731   c3.343-3.358,6.589-6.559,9.729-9.858c0.342-0.355,0.396-1.556,0.081-1.88c-3.725-3.868-7.546-7.647-11.343-11.449   C28.018,36.643,28.749,48.22,34.419,54.731z" data-part-id="logo__item--logo_0__0"></path>
	<path fill-rule="evenodd" clip-rule="evenodd" fill="#27A8E0" d="M56.483,70.303c-7.188-0.51-14.298-5.021-19.92-12.128   c-0.384-0.486-0.201-2,0.278-2.502c4.534-4.729,9.183-9.349,13.811-13.988c2.582-2.586,5.213-5.126,7.769-7.732   c1.022-1.042,1.984-1.602,3.273-0.448c6.763,6.057,11.704,13.12,11.843,22.585C73.668,65.161,68.094,70.346,56.483,70.303z" data-part-id="logo__item--logo_0__1"></path>
	<path fill-rule="evenodd" clip-rule="evenodd" fill="#27A8E0" d="M12.645,33.783c3.15-3.408,6.17-6.67,9.189-9.932   c0.267,0.081,0.533,0.166,0.799,0.247c-0.332,4.508-0.668,9.009-1.01,13.657c-1.341-0.208-2.219-0.344-3.404-0.525   c-1.671,6.021-1.918,11.974-0.29,17.895c6.419,23.33,33.028,32.676,52.69,18.56C86.83,62.054,88.861,37.62,74.803,23.422   C64.523,13.047,50.336,10.14,37.179,15.718c-5.644,2.39-6.873,5.937-4.165,11.434c0.397,0.799-0.033,2.011-0.079,3.034   c-0.809-0.525-1.938-0.861-2.374-1.606c-3.692-6.269-1.552-12.603,5.14-15.564c25.28-11.183,53.551,8.763,51.555,36.365   c-1.32,18.32-16.822,33.44-34.924,34.065c-19.173,0.656-35.509-12.588-38.072-31.29c-0.595-4.35-0.037-8.905,0.361-13.332   C14.889,35.829,15.183,35.855,12.645,33.783z" data-part-id="logo__item--logo_0__2"></path>
	<path fill-rule="evenodd" clip-rule="evenodd" fill="#8CC542" d="M57.742,30.606c-3.785,3.96-7.288,7.624-11.145,11.661   c-3.819-3.914-7.606-7.728-11.252-11.669c-0.278-0.297,0.231-2.026,0.701-2.2c2.37-0.865,4.817-1.833,7.293-2.022   C48.611,25.974,53.314,27.919,57.742,30.606z" data-part-id="logo__item--logo_0__3"></path>
	<path fill-rule="evenodd" clip-rule="evenodd" fill="#27A8E0" d="M34.419,54.731c-5.67-6.512-6.402-18.088-1.533-23.188   c3.796,3.802,7.618,7.581,11.343,11.449c0.314,0.324,0.261,1.524-0.081,1.88C41.008,48.173,37.762,51.373,34.419,54.731z" data-part-id="logo__item--logo_0__4"></path>
</g>
</svg>